<svg width="31" height="30" viewBox="0 0 31 30" fill="none" xmlns="http://www.w3.org/2000/svg">
<g id="Group 4">
<path id="Ellipse 1" d="M30.3111 15C30.3111 22.8827 23.7014 29.3111 15.5 29.3111C7.29858 29.3111 0.688889 22.8827 0.688889 15C0.688889 7.11731 7.29858 0.688889 15.5 0.688889C23.7014 0.688889 30.3111 7.11731 30.3111 15Z" fill="#EEFDFF" stroke="#ADD1D4" stroke-width="1.37778"/>
<path id="Arrow 1" d="M15.0129 18.2139C15.2819 18.4829 15.7181 18.4829 15.9871 18.2139L20.3712 13.8298C20.6402 13.5608 20.6402 13.1246 20.3712 12.8556C20.1022 12.5865 19.666 12.5865 19.3969 12.8556L15.5 16.7525L11.6031 12.8556C11.334 12.5865 10.8978 12.5865 10.6288 12.8556C10.3598 13.1246 10.3598 13.5608 10.6288 13.8298L15.0129 18.2139ZM14.8111 17.0449V17.7267H16.1889V17.0449H14.8111Z" fill="#ADD1D4"/>
</g>
</svg>
