<svg width="46" height="58" viewBox="0 0 46 58" fill="none" xmlns="http://www.w3.org/2000/svg">
<g clip-path="url(#clip0_0_992)">
<path d="M20.0975 2.8355H20.0622C22.7819 2.6344 25.5152 2.94623 28.1198 3.75475C34.0843 5.6463 37.1497 11.4235 36.4284 16.3698C36.3088 16.9644 36.33 17.5789 36.4902 18.1639C36.6504 18.749 36.9453 19.2884 37.3512 19.7392C38.4508 20.9342 39.5716 22.1116 40.6853 23.296C40.957 23.5537 41.2021 23.838 41.4172 24.1445C41.8768 24.8905 41.7283 25.4916 40.954 25.9123C40.4359 26.2034 39.882 26.4256 39.3064 26.5735C38.9069 26.6654 38.8751 26.8493 39.0448 27.171C39.264 27.5847 39.462 28.0089 39.6741 28.4261C39.9534 28.9848 39.865 29.3701 39.3524 29.7202C39.1255 29.8589 38.9255 30.0373 38.7619 30.247C38.5993 30.4733 38.6276 30.6005 38.9069 30.749C39.9676 31.2405 40.0347 32.0112 39.1332 32.7502C38.8347 32.9837 38.6238 33.3111 38.5346 33.6795C38.4455 34.0478 38.4832 34.4354 38.6417 34.7796C38.769 35.0943 38.9493 35.3913 39.1049 35.6989C39.9075 37.2722 39.3418 38.7466 37.6659 39.291C36.1751 39.7973 34.5688 39.8562 33.0449 39.4607C32.0549 39.1991 31.6943 39.4607 31.7226 40.4861C31.7614 42.0665 31.7827 43.6681 31.8817 45.2273C31.9559 46.3587 32.3271 47.8684 31.316 48.6957C30.8809 49.0327 30.3903 49.2911 29.8664 49.4594C27.9338 50.144 25.9435 50.6528 23.9195 50.9797C23.9195 50.7923 23.8841 50.6085 23.8735 50.4352C23.771 48.8584 23.7498 41.1472 23.7109 39.5668C23.6826 38.5379 24.0432 38.2799 25.0332 38.5415C26.5576 38.9342 28.1635 38.874 29.6542 38.3682C31.3301 37.8273 31.8958 36.353 31.0932 34.7796C30.9377 34.472 30.7609 34.175 30.6301 33.8568C30.4718 33.5131 30.4342 33.1261 30.5234 32.7584C30.6126 32.3907 30.8233 32.0639 31.1215 31.8309C32.0231 31.0884 31.9418 30.3212 30.8952 29.8298C30.6159 29.699 30.5876 29.554 30.7503 29.3242C30.913 29.1089 31.113 28.9245 31.3407 28.7797C31.8534 28.4261 31.9418 28.0443 31.6624 27.4857C31.4503 27.0685 31.2523 26.6442 31.0331 26.227C30.8634 25.9088 30.8952 25.7214 31.2947 25.633C31.8705 25.4839 32.4243 25.2605 32.9423 24.9683C33.7166 24.5653 33.8651 23.9607 33.4055 23.2182C33.1905 22.9117 32.9453 22.6274 32.6736 22.3697C31.5599 21.1852 30.4391 20.0079 29.3396 18.8129C28.9336 18.3621 28.6388 17.8226 28.4785 17.2376C28.3183 16.6525 28.2972 16.0381 28.4168 15.4434C29.138 10.5007 26.0762 4.73765 20.0975 2.8355ZM18.7929 8.49245C19.3006 9.10948 19.5782 9.88371 19.5782 10.6828C19.5782 11.4818 19.3006 12.256 18.7929 12.8731C17.1983 14.7681 15.3987 13.8135 13.387 14.8742C12.4748 15.3515 11.5343 15.9031 10.912 16.7445C10.4135 17.4163 10.41 18.2578 10.0458 18.979C9.62343 19.7037 8.94471 20.2436 8.14366 20.4923C7.68273 20.6346 7.19546 20.6703 6.71871 20.5966C6.24196 20.5229 5.7882 20.3418 5.39175 20.0669C4.9953 19.7921 4.66654 19.4307 4.43031 19.0101C4.19409 18.5894 4.05659 18.1206 4.02822 17.639C3.96458 14.899 6.53143 14.2272 7.19258 13.7852C8.00224 13.2443 8.90028 12.8271 9.64629 12.1978C10.707 11.3033 11.3787 10.0517 12.2803 9.01572C13.1062 8.02448 14.2652 7.36832 15.5401 7.17014C16.1483 7.10048 16.7643 7.18362 17.3323 7.41204C17.9002 7.64047 18.4023 8.00695 18.7929 8.47831V8.49245Z" fill="#6DA4AA"/>
<path d="M22.3888 2.67617C27.473 2.5701 29.255 3.21004 31.1041 3.79342C37.3126 5.75567 40.4946 11.7485 39.7345 16.8787C39.6128 17.4959 39.636 18.133 39.8022 18.7397C39.9685 19.3465 40.2733 19.9064 40.6926 20.3754C41.8346 21.6164 42.9943 22.8503 44.1504 24.063C44.4326 24.3316 44.6872 24.6277 44.9106 24.9469C45.3844 25.7176 45.2359 26.3611 44.4297 26.7642C43.8932 27.067 43.319 27.2977 42.7221 27.4501C42.3049 27.5455 42.2766 27.7365 42.4498 28.0688C42.6761 28.5002 42.8812 28.9386 43.1004 29.3735C43.3903 29.9498 43.3019 30.3528 42.768 30.717C42.5324 30.8564 42.325 31.0387 42.1564 31.2544C41.9902 31.4913 42.0149 31.6398 42.3049 31.7741C43.3938 32.2868 43.4751 33.0823 42.5382 33.8531C42.2296 34.0949 42.0117 34.4339 41.9199 34.8151C41.8281 35.1964 41.8679 35.5974 42.0326 35.9532C42.1634 36.282 42.3473 36.5896 42.5099 36.9078C43.3443 38.5413 42.7574 40.0722 41.0214 40.6343C39.4746 41.1588 37.8084 41.2203 36.2272 40.8111C35.1983 40.5424 34.8129 40.8111 34.8518 41.8718C34.8907 42.9325 35.0074 45.3791 35.1488 47.801" stroke="#004E56" stroke-width="1.03333" stroke-linecap="round" stroke-linejoin="round"/>
<path d="M7.75141 9.09352C9.27878 6.92266 11.6123 5.24325 14.2428 4.8508C16.8732 4.45835 19.7477 5.55792 21.2008 7.76767C22.6539 9.97742 22.3605 13.3115 20.3169 14.9909C18.6481 16.3768 16.2722 16.5253 14.4195 17.6497C11.2941 19.5483 10.7142 24.4451 6.0826 22.8894C1.60654 21.3833 0.952452 13.8595 2.14041 10.1224C2.90764 7.71464 4.6719 5.69935 6.8074 4.34875C11.5345 1.36824 17.8667 1.22328 23.0924 2.8744C29.2938 4.83666 32.4723 10.826 31.7228 15.9561C31.601 16.5734 31.6242 17.2104 31.7905 17.8172C31.9568 18.4239 32.2616 18.9838 32.6809 19.4528C33.8229 20.6903 34.9826 21.9277 36.1387 23.1404C36.4208 23.4078 36.6754 23.7028 36.8989 24.0208C37.3726 24.7951 37.2241 25.435 36.418 25.8416C35.8808 26.143 35.3068 26.3736 34.7103 26.5275C34.2931 26.6195 34.2648 26.8139 34.4381 27.1463C34.6644 27.5741 34.8694 28.016 35.0886 28.4509C35.3786 29.0272 35.2902 29.4267 34.7563 29.7909C34.5163 29.9342 34.3043 30.1199 34.1305 30.3389C33.9643 30.5758 33.9891 30.7278 34.279 30.8622C35.368 31.3713 35.4493 32.1704 34.5123 32.9376C34.2034 33.18 33.9854 33.5197 33.8936 33.9015C33.8019 34.2833 33.8417 34.6849 34.0067 35.0413C34.1411 35.3701 34.325 35.6777 34.4841 35.9959C35.3185 37.6293 34.7315 39.1779 32.9956 39.7224C31.4488 40.2469 29.7825 40.3084 28.2013 39.8992C27.1724 39.6305 26.7871 39.8992 26.826 40.9598C26.8648 42.0205 26.9815 48.2326 27.1229 50.6544" stroke="#004E56" stroke-width="1.03333" stroke-linecap="round" stroke-linejoin="round"/>
</g>
<defs>
<clipPath id="clip0_0_992">
<rect width="44.7778" height="56.4889" fill="white" transform="matrix(-1 0 0 1 45.4443 0.866638)"/>
</clipPath>
</defs>
</svg>
