<svg width="45" height="65" viewBox="0 0 45 65" fill="none" xmlns="http://www.w3.org/2000/svg">
<g clip-path="url(#clip0_0_982)">
<path d="M21.8278 7.79086C23.8081 7.58904 25.8008 7.53593 27.789 7.63197C30.842 7.77704 33.764 7.79431 36.4035 9.59388C37.577 10.3839 38.4523 11.5456 38.8896 12.8931C39.3268 14.2406 39.3008 15.6962 38.8155 17.0271C38.2642 18.457 37.2339 19.5727 36.9617 21.1201C36.6757 22.7505 36.9617 24.4188 36.9445 26.0629C36.9445 26.6708 37.5337 27.075 37.9782 27.4998C38.8431 28.3253 39.6529 29.2061 40.5005 30.0455C40.8658 30.3909 41.2758 30.5774 41.1897 31.1473C41.0174 32.4184 39.7011 32.4771 38.9499 33.2198C38.7023 33.4593 38.5383 33.7725 38.4825 34.1129C38.4266 34.4533 38.4818 34.8027 38.6398 35.1091C38.8362 35.572 39.0636 36.1039 38.8397 36.5564C38.6157 37.0089 38.0747 37.185 37.9334 37.641C37.7921 38.0969 38.0782 38.5114 37.9541 38.9259C37.7439 39.6167 36.7687 39.6167 36.4138 40.1348C36.0114 40.8298 35.7821 41.6118 35.7453 42.4145C35.5972 44.5353 34.4807 45.4852 32.465 45.2261C31.4002 45.0914 30.3699 44.6493 29.3327 44.3177C27.3307 43.6822 25.2977 43.4715 25.3804 46.1173C25.4459 48.3348 25.3563 50.5489 25.3804 52.7664C25.4183 54.9183 26.645 57.9233 23.3681 57.9026C21.5108 57.9026 12.7654 57.5572 12.3036 56.1479C12.2396 55.8595 12.2588 55.5588 12.3588 55.2809L14.3435 47.644C14.5503 46.853 15.3049 45.4334 14.5158 44.7736C13.8267 44.2072 12.9825 44.8324 12.2657 45.0189C11.3868 45.2197 10.4861 45.3091 9.58491 45.2849C3.56167 45.3056 1.76297 42.829 0.467348 36.9951C-0.0426287 34.6912 1.19786 32.7466 3.03102 31.3718C3.72017 30.8434 4.57818 30.5567 5.32247 30.1076C6.20459 29.5757 6.37688 29.0403 6.42512 28.011C6.50782 26.2114 5.73596 24.4602 5.56367 22.7194C5.41918 21.0599 5.62584 19.3885 6.17013 17.8146C7.30455 14.5261 9.67803 11.8134 12.7826 10.2571C15.5082 8.88925 18.6611 8.1259 21.8278 7.79086Z" fill="#6DA4AA"/>
<path d="M27.7996 57.2808C27.3619 54.2412 27.1414 51.098 27.0656 49.8373C26.8347 45.9446 27.8133 45.2952 31.4762 46.4592C32.6133 46.8046 33.082 47.15 34.2535 47.2986C36.4623 47.5818 37.6993 46.5421 37.8509 44.2141C37.9164 43.2227 38.4023 41.1365 39.3498 40.5597C39.6531 40.3731 39.9942 40.2522 40.3009 40.0692C40.3986 40.0186 40.4816 39.9436 40.5421 39.8516C40.588 39.7619 40.6105 39.6621 40.6076 39.5614C40.6282 39.0157 40.4559 38.4181 40.7419 37.9484C41.0279 37.4786 41.5965 37.3232 41.7757 36.8465C41.8274 36.6507 41.8274 36.4448 41.7757 36.249C41.6723 35.6652 41.2554 35.2127 41.2485 34.6186C41.2266 34.2013 41.3563 33.7902 41.6137 33.4615C42.0203 32.9572 42.6096 32.8432 43.1058 32.4944C43.533 32.1904 44.0878 31.6481 44.1946 31.1128C44.3015 30.5774 43.8294 30.2112 43.5055 29.8831C42.5717 28.9609 41.6827 27.9937 40.7488 27.0853C40.2595 26.619 39.6014 26.1769 39.6152 25.5102C39.6496 23.4551 38.802 20.2393 40.3043 18.5365C40.9849 17.7969 41.5053 16.924 41.8327 15.9729C42.1601 15.0217 42.2873 14.0129 42.2064 13.0099C42.1308 11.9023 41.8068 10.826 41.2585 9.86135C40.7102 8.89669 39.9517 8.0685 39.0397 7.43852C32.1481 2.75479 20.1189 3.37307 15.0811 10.5472C13.279 13.1205 12.6036 16.3742 12.7794 19.5278C12.9275 22.1529 13.7545 24.9127 15.7944 26.5672C18.2892 28.5913 22.0451 28.4117 24.8741 26.8919C26.6717 25.9679 28.1064 24.464 28.947 22.6226C30.1324 19.8248 30.0255 16.0599 27.0587 14.3674C23.6508 12.4262 19.6744 15.6696 19.1782 19.0304C18.3719 24.3946 22.1588 29.5826 21.5489 34.9571C21.3456 36.7429 20.5152 38.3905 19.6055 39.9414" stroke="#004E56" stroke-width="1.03333" stroke-linecap="round" stroke-linejoin="round"/>
<path d="M25.0841 31.7343C25.5689 31.5957 26.0775 31.5616 26.5764 31.6343C27.0753 31.7069 27.5531 31.8846 27.9786 32.1557C28.2198 32.3112 27.1723 33.3474 25.8181 33.7343C24.875 33.9736 23.877 33.8581 23.0132 33.4096C23.2228 33.0011 23.5153 32.641 23.872 32.3525C24.2286 32.064 24.6415 31.8535 25.0841 31.7343Z" stroke="#004E56" stroke-width="1.03333" stroke-linecap="round" stroke-linejoin="round"/>
<path d="M25.0945 36.3006C25.594 36.3685 26.0735 36.5415 26.5017 36.8081C26.9298 37.0748 27.2969 37.4292 27.5789 37.8481C27.7374 38.0829 26.366 38.6183 24.9704 38.4284C24.01 38.2713 23.1406 37.7661 22.5273 37.0087C22.8822 36.7176 23.294 36.5041 23.7361 36.3822C24.1782 36.2602 24.641 36.2325 25.0945 36.3006Z" stroke="#004E56" stroke-width="1.03333" stroke-linecap="round" stroke-linejoin="round"/>
<path d="M18.6748 31.565C18.2696 31.2645 17.8057 31.0533 17.3135 30.9449C16.8212 30.8366 16.3117 30.8337 15.8183 30.9363C15.5391 30.995 16.1628 32.318 17.2827 33.178C18.0782 33.74 19.0514 33.9907 20.0187 33.8827C19.9698 33.4233 19.8249 32.9795 19.5933 32.5801C19.3618 32.1808 19.0488 31.8349 18.6748 31.565Z" stroke="#004E56" stroke-width="1.03333" stroke-linecap="round" stroke-linejoin="round"/>
<path d="M17.0483 35.8481C16.5547 35.7313 16.042 35.7211 15.5441 35.8182C15.0463 35.9153 14.5747 36.1174 14.1607 36.4111C13.9299 36.5769 15.0256 37.5613 16.4005 37.8825C17.3527 38.0738 18.3418 37.9091 19.1813 37.4197C18.9545 37.0233 18.6476 36.6787 18.2803 36.4081C17.913 36.1375 17.4934 35.9467 17.0483 35.8481Z" stroke="#004E56" stroke-width="1.03333" stroke-linecap="round" stroke-linejoin="round"/>
</g>
<defs>
<clipPath id="clip0_0_982">
<rect width="44.0889" height="64.7555" fill="white" transform="translate(0.377441 0.0444336)"/>
</clipPath>
</defs>
</svg>
