<svg width="45" height="66" viewBox="0 0 45 66" fill="none" xmlns="http://www.w3.org/2000/svg">
<g clip-path="url(#clip0_0_1003)">
<path d="M23.2025 55.8148C18.4314 56.4791 10.9664 56.5966 7.27425 52.8788C6.12551 51.7264 7.1458 49.2674 7.41739 47.8838C7.7844 45.9606 8.40831 39.0755 8.64687 37.1341C8.76064 36.1725 8.98452 35.2146 8.82303 34.2347C8.51108 32.3446 7.51648 30.8325 6.16589 29.5333C5.28472 28.6925 4.49155 27.764 3.79867 26.7624C1.1929 22.9785 -0.165035 18.8643 0.613026 14.229C0.990887 11.6273 2.06495 9.17605 3.7216 7.13467C5.95302 4.47018 8.92947 2.95443 12.2362 2.05892C15.2036 1.26791 18.2848 0.99232 21.3454 1.24416C24.6954 1.45169 27.9596 2.38861 30.9097 3.98939C36.5983 7.12733 38.5398 13.6454 36.7818 18.5193C36.5403 19.1006 36.437 19.7301 36.4804 20.3581C36.5237 20.9861 36.7123 21.5954 37.0314 22.138C37.9306 23.5804 38.8298 25.0227 39.7179 26.4357C39.9433 26.7526 40.1352 27.0921 40.2905 27.4487C40.6061 28.3038 40.3345 28.8837 39.4647 29.1406C38.8776 29.3315 38.2681 29.445 37.6517 29.4782C37.2259 29.4782 37.1599 29.6727 37.2663 30.0324C37.4021 30.4985 37.5195 30.972 37.6333 31.4417C37.6873 31.5615 37.7148 31.6914 37.7138 31.8228C37.7128 31.9541 37.6834 32.0837 37.6276 32.2026C37.5718 32.3215 37.4909 32.4269 37.3906 32.5116C37.2902 32.5963 37.1727 32.6582 37.0461 32.6932C36.7936 32.7875 36.5591 32.924 36.3524 33.0969C36.1432 33.2988 36.1432 33.464 36.4002 33.6401C37.3654 34.3741 37.292 35.1522 36.2203 35.7247C35.8688 35.9025 35.5878 36.1941 35.4232 36.552C35.2585 36.9099 35.22 37.313 35.3138 37.6956C35.3799 38.0626 35.501 38.3819 35.5964 38.7269C36.0955 40.4922 35.2294 41.8758 33.3943 42.0887C31.7743 42.3014 30.1275 42.0361 28.6562 41.3253C27.702 40.8555 27.2836 41.0427 27.1001 42.0997C26.8212 43.7145 26.3331 50.2914 26.1165 51.9172C25.9624 53.0806 26.0321 54.6918 24.8357 55.3304C24.3229 55.5839 23.7705 55.7478 23.2025 55.8148Z" fill="#6DA4AA"/>
<path d="M18.5815 35.9925C20.3652 34.8218 22.2516 33.5556 23.1214 31.6141C23.9032 29.8965 23.782 27.9073 23.426 26.0539C23.0284 23.9748 22.3584 21.9572 21.4332 20.0533C20.6771 18.4898 19.7376 16.9888 19.3155 15.2822C18.6329 12.5663 19.7119 9.7293 22.692 9.35128C24.9675 9.06134 26.5493 9.98988 28.0614 11.5533C29.5735 13.1168 29.8083 15.5281 29.4413 17.7008C29.2858 18.7601 28.9119 19.7756 28.3433 20.6828C27.7747 21.59 27.0238 22.3692 26.1382 22.971C21.1836 26.153 14.783 22.8242 11.7918 18.5302C9.22276 14.8601 9.4026 10.9111 11.5239 7.07949C12.7974 4.78568 15.0068 3.0901 17.4511 2.15055C22.8755 0.0659349 29.3533 1.20367 34.3336 3.9489C40.2461 7.20795 42.261 13.9536 40.4516 19.0257C40.2019 19.6284 40.0955 20.2809 40.1407 20.9317C40.186 21.5826 40.3816 22.2141 40.7122 22.7765C41.6297 24.2886 42.5619 25.7566 43.4868 27.2247C43.721 27.5581 43.9202 27.9147 44.0814 28.289C44.408 29.1698 44.1217 29.7937 43.2226 30.0396C42.615 30.244 41.9832 30.3674 41.3435 30.4066C40.8994 30.4066 40.8333 30.6085 40.9434 30.9828C41.0866 31.4636 41.204 31.9554 41.3398 32.4509C41.5196 33.1005 41.3398 33.4895 40.7306 33.7501C40.4619 33.8476 40.2132 33.9931 39.9965 34.1795C39.78 34.3887 39.7763 34.5465 40.0442 34.741C41.0462 35.475 40.9691 36.3118 39.8607 36.9027C39.497 37.0864 39.2057 37.3873 39.0339 37.7569C38.8621 38.1264 38.8198 38.5431 38.9139 38.9396C38.9836 39.3066 39.1084 39.6736 39.2075 40.0113C39.7249 41.8463 39.2882 44.4154 36.932 45.1714C35.0713 45.7807 33.5739 45.1347 32.0177 44.375C31.0231 43.8906 30.5901 44.0851 30.4029 45.1788C30.2157 46.2725 29.6689 53.7411 29.3019 56.2331" stroke="#004E56" stroke-width="1.03333" stroke-linecap="round" stroke-linejoin="round"/>
<path d="M13.7259 26.2815C10.3494 24.9236 9.18595 23.239 10.0925 19.6386C10.7788 16.9484 12.7533 15.0693 15.4251 14.328C17.7593 13.6784 17.9355 16.442 19.9577 17.1356C20.3142 17.2698 20.7001 17.3065 21.0755 17.242C21.4509 17.1775 21.8024 17.0141 22.0937 16.7686C22.5561 16.3282 22.7323 15.6676 23.0589 15.1281C25.2903 11.4103 29.2981 14.7978 31.1552 16.9631C32.9535 19.0624 34.7629 23.4996 32.9902 26.1567C31.5882 28.2597 29.4816 28.2597 28.1971 26.3475C26.8318 24.307 25.9583 21.9911 23.4259 21.1801C22.802 20.9782 22.0717 20.8901 21.5432 21.2718C20.9119 21.7306 20.8605 22.6224 20.6844 23.3784C20.5018 24.1831 20.1136 24.9266 19.5579 25.5364C19.0021 26.1462 18.2977 26.6014 17.5134 26.8577C16.5959 27.1109 15.1278 26.8577 13.7259 26.2815Z" stroke="#004E56" stroke-width="1.03333" stroke-linecap="round" stroke-linejoin="round"/>
</g>
<defs>
<clipPath id="clip0_0_1003">
<rect width="44.0889" height="65.4444" fill="white" transform="matrix(-1 0 0 1 44.4888 0.111084)"/>
</clipPath>
</defs>
</svg>
