<svg width="43" height="41" viewBox="0 0 43 41" fill="none" xmlns="http://www.w3.org/2000/svg">
<g id="Group 26">
<path id="Rectangle 1" d="M4.4668 4.53333H13.9458C17.3333 4.53333 20.0793 7.27938 20.0793 10.6668V18.0828H10.3773C7.113 18.0828 4.4668 15.4366 4.4668 12.1723V4.53333Z" fill="#6DA4AA"/>
<path id="Rectangle 7" d="M20.1753 20.976L20.3057 33.0404C20.3515 37.2744 16.9562 40.7439 12.7222 40.7897L0.546985 40.9213L0.413539 28.5781C0.369428 24.498 3.64122 21.1547 7.7213 21.1106L20.1753 20.976Z" fill="#6DA4AA"/>
<path id="Rectangle 6" d="M42.0283 0.400024L42.1386 10.6027C42.1844 14.8368 38.7891 18.3062 34.5551 18.352L22.858 18.4785L22.7447 7.997C22.7006 3.91693 25.9724 0.57361 30.0525 0.529499L42.0283 0.400024Z" fill="#6DA4AA"/>
<path id="Rectangle 2" d="M23.1396 20.9056H33.8036C37.6144 20.9056 40.7037 23.995 40.7037 27.8058V36.1488H29.7889C26.1166 36.1488 23.1396 33.1718 23.1396 29.4995V20.9056Z" fill="#6DA4AA"/>
</g>
</svg>
