<svg width="96" height="88" viewBox="0 0 96 88" fill="none" xmlns="http://www.w3.org/2000/svg">
<g id="Group 26">
<path id="Rectangle 1" d="M1.44922 2.3667H26.878C35.9653 2.3667 43.332 9.73338 43.332 18.8206V38.715H17.3048C8.54801 38.715 1.44922 31.6162 1.44922 22.8593V2.3667Z" fill="#004E56"/>
<path id="Rectangle 7" d="M43.4531 44.6074L43.733 70.4991C43.8313 79.5858 36.5447 87.0317 27.4579 87.1299L1.32857 87.4124L1.04218 60.9225C0.947516 52.1662 7.96916 44.991 16.7255 44.8964L43.4531 44.6074Z" fill="#6DA4AA"/>
<path id="Rectangle 6" d="M94.7881 0.448975L95.0248 22.3451C95.1231 31.4318 87.8364 38.8777 78.7497 38.9759L53.6465 39.2473L53.4033 16.7529C53.3086 7.99664 60.3303 0.821509 69.0866 0.726842L94.7881 0.448975Z" fill="#6DA4AA"/>
</g>
</svg>
