<svg width="48" height="45" viewBox="0 0 48 45" fill="none" xmlns="http://www.w3.org/2000/svg">
<g id="Group 26">
<path id="Rectangle 1" d="M47.4136 43.5012H34.6992C30.1555 43.5012 26.4722 39.8179 26.4722 35.2743L26.4722 25.3271L39.4858 25.3271C43.8642 25.3271 47.4136 28.8765 47.4136 33.2549V43.5012Z" fill="#004E56"/>
<path id="Rectangle 7" d="M26.4116 22.3804L26.2717 9.43453C26.2225 4.89117 29.8658 1.16823 34.4092 1.11911L47.4739 0.977859L47.6171 14.2228C47.6644 18.601 44.1536 22.1886 39.7754 22.2359L26.4116 22.3804Z" fill="#6DA4AA"/>
<path id="Rectangle 6" d="M0.744141 44.4597L0.625778 33.5117C0.576658 28.9683 4.21996 25.2453 8.76333 25.1962L21.3149 25.0605L21.4365 36.3077C21.4839 40.6859 17.9731 44.2734 13.5949 44.3208L0.744141 44.4597Z" fill="#6DA4AA"/>
</g>
</svg>
